<?xml version="1.0" standalone="no"?>
<!DOCTYPE svg PUBLIC "-//W3C//DTD SVG 20010904//EN"
 "http://www.w3.org/TR/2001/REC-SVG-20010904/DTD/svg10.dtd">
<svg version="1.0" xmlns="http://www.w3.org/2000/svg"
 width="260.000000pt" height="260.000000pt" viewBox="0 0 260.000000 260.000000"
 preserveAspectRatio="xMidYMid meet">
<metadata>
Created by potrace 1.11, written by Peter Selinger 2001-2013
</metadata>
<g transform="translate(0.000000,260.000000) scale(0.100000,-0.100000)"
fill="#000000" stroke="none">
<path d="M0 2040 c0 -308 2 -560 5 -560 7 0 188 81 370 165 39 18 165 74 280
125 116 51 214 96 219 100 5 5 -16 90 -47 192 -31 102 -52 187 -47 192 4 4 52
28 105 52 l97 44 27 -20 c14 -10 101 -95 193 -187 l167 -168 41 -135 c22 -74
51 -169 64 -210 13 -41 27 -89 30 -106 l7 -31 -167 -74 c-155 -68 -168 -72
-178 -55 -6 10 -29 47 -51 82 -22 35 -58 94 -80 130 -70 115 -60 109 -130 79
-33 -15 -87 -39 -120 -55 -33 -15 -81 -37 -107 -49 -27 -11 -69 -31 -95 -42
-27 -12 -142 -64 -258 -116 -116 -52 -236 -106 -267 -120 l-58 -26 0 -624 0
-623 543 2 542 3 67 89 c66 88 151 243 142 258 -3 4 -93 8 -199 8 l-194 0 -3
111 -3 112 -60 16 c-161 45 -344 177 -450 326 -52 74 -88 142 -80 155 4 6 122
10 300 10 l294 0 3 68 3 67 795 0 795 0 3 -101 3 -100 49 -16 50 -16 0 298 0
299 -57 -23 c-32 -13 -160 -64 -285 -115 -125 -50 -230 -91 -233 -91 -3 0 -5
43 -5 95 0 52 -4 95 -9 95 -4 0 -99 -42 -210 -94 -110 -52 -201 -90 -201 -83
0 13 178 545 190 567 8 15 9 11 44 -124 9 -32 18 -61 20 -63 2 -3 11 6 19 19
380 605 366 584 455 723 41 64 42 44 6 -109 -14 -61 -34 -151 -45 -201 -12
-49 -29 -126 -40 -170 -10 -45 -19 -84 -19 -88 0 -4 34 10 75 33 41 22 110 59
153 81 42 23 92 50 110 61 l32 20 0 239 0 239 -1300 0 -1300 0 0 -560z"/>
<path d="M2565 1949 c-16 -24 -58 -84 -93 -134 l-63 -90 93 -6 c51 -3 94 -5
96 -4 1 1 1 64 0 140 l-3 138 -30 -44z"/>
<path d="M1322 958 c-85 -107 -85 -107 -187 -110 l-90 -3 0 -50 0 -50 116 -3
117 -3 48 56 c26 31 51 52 55 48 4 -4 29 -60 56 -123 l49 -115 44 0 44 0 46
102 c25 56 49 101 55 100 8 -2 36 -61 85 -184 5 -13 18 -23 29 -23 10 0 32 -3
50 -6 21 -5 32 -2 35 7 3 8 19 60 37 117 17 56 34 102 38 102 3 0 16 -18 29
-40 l23 -40 119 0 120 0 0 55 0 55 -89 0 c-97 0 -94 -1 -132 70 -36 69 -43 75
-89 75 l-42 0 -34 -104 c-18 -57 -35 -105 -37 -108 -2 -2 -24 44 -48 102 -23
59 -45 108 -48 110 -4 2 -24 5 -45 6 -44 4 -41 7 -86 -96 -17 -38 -37 -83 -45
-100 l-14 -30 -10 25 c-30 76 -77 187 -84 197 -4 7 -14 10 -21 7 -8 -3 -17 -1
-21 5 -12 20 -23 12 -73 -51z"/>
<path d="M2548 577 l-48 -22 0 -97 0 -98 -215 0 c-186 0 -215 -2 -215 -15 0
-38 101 -210 179 -302 l35 -43 158 0 158 0 0 300 c0 165 -1 300 -2 299 -2 0
-24 -11 -50 -22z"/>
</g>
</svg>
